<svg width="19" height="19" viewBox="0 0 19 19" fill="none" xmlns="http://www.w3.org/2000/svg">
  <path
    d="M15.7542 10.0223C15.6273 9.8778 15.5573 9.69208 15.5573 9.49977C15.5573 9.30747 15.6273 9.12174 15.7542 8.97727L16.7675 7.83727C16.8792 7.71272 16.9485 7.556 16.9656 7.38959C16.9827 7.22319 16.9466 7.05565 16.8625 6.91102L15.2792 4.17186C15.196 4.0274 15.0693 3.91289 14.9172 3.84465C14.7651 3.77642 14.5953 3.75794 14.4321 3.79186L12.9438 4.09269C12.7544 4.13182 12.5572 4.10028 12.3895 4.00402C12.2218 3.90777 12.0951 3.75345 12.0334 3.57019L11.5504 2.12144C11.4973 1.9642 11.3961 1.82763 11.2612 1.73102C11.1262 1.63442 10.9643 1.58268 10.7984 1.58311H7.63169C7.45905 1.5741 7.28821 1.62184 7.14526 1.71905C7.00231 1.81626 6.8951 1.95758 6.84002 2.12144L6.39669 3.57019C6.33494 3.75345 6.20825 3.90777 6.04053 4.00402C5.8728 4.10028 5.67565 4.13182 5.48627 4.09269L3.95835 3.79186C3.80362 3.76999 3.64588 3.79441 3.505 3.86203C3.36412 3.92965 3.24641 4.03746 3.16669 4.17186L1.58335 6.91102C1.49719 7.05404 1.45845 7.22063 1.47266 7.38699C1.48688 7.55335 1.55333 7.71096 1.66252 7.83727L2.66794 8.97727C2.79486 9.12174 2.86485 9.30747 2.86485 9.49977C2.86485 9.69208 2.79486 9.8778 2.66794 10.0223L1.66252 11.1623C1.55333 11.2886 1.48688 11.4462 1.47266 11.6126C1.45845 11.7789 1.49719 11.9455 1.58335 12.0885L3.16669 14.8277C3.24989 14.9722 3.37657 15.0867 3.52868 15.1549C3.68078 15.2231 3.85055 15.2416 4.01377 15.2077L5.5021 14.9069C5.69148 14.8677 5.88864 14.8993 6.05636 14.9955C6.22408 15.0918 6.35077 15.2461 6.41252 15.4294L6.89544 16.8781C6.95052 17.042 7.05772 17.1833 7.20068 17.2805C7.34363 17.3777 7.51447 17.4255 7.6871 17.4164H10.8538C11.0197 17.4169 11.1816 17.3651 11.3166 17.2685C11.4516 17.1719 11.5527 17.0353 11.6059 16.8781L12.0888 15.4294C12.1505 15.2461 12.2772 15.0918 12.4449 14.9955C12.6127 14.8993 12.8098 14.8677 12.9992 14.9069L14.4875 15.2077C14.6507 15.2416 14.8205 15.2231 14.9726 15.1549C15.1247 15.0867 15.2514 14.9722 15.3346 14.8277L16.9179 12.0885C17.002 11.9439 17.0381 11.7764 17.021 11.61C17.0039 11.4436 16.9346 11.2868 16.8229 11.1623L15.7542 10.0223ZM14.5746 11.0831L15.2079 11.7956L14.1946 13.5531L13.2604 13.3631C12.6903 13.2466 12.0971 13.3434 11.5937 13.6353C11.0902 13.9272 10.7114 14.3937 10.5292 14.9464L10.2284 15.8331H8.20169L7.91669 14.9306C7.73449 14.3779 7.3557 13.9113 6.85221 13.6195C6.34873 13.3276 5.75561 13.2307 5.18544 13.3473L4.25127 13.5373L3.2221 11.7877L3.85544 11.0752C4.2449 10.6398 4.46022 10.0761 4.46022 9.49186C4.46022 8.90766 4.2449 8.34396 3.85544 7.90852L3.2221 7.19602L4.23544 5.45436L5.1696 5.64436C5.73978 5.76091 6.3329 5.66406 6.83638 5.37218C7.33986 5.08031 7.71865 4.61373 7.90085 4.06102L8.20169 3.16644H10.2284L10.5292 4.06894C10.7114 4.62165 11.0902 5.08823 11.5937 5.3801C12.0971 5.67197 12.6903 5.76883 13.2604 5.65227L14.1946 5.46227L15.2079 7.21977L14.5746 7.93228C14.1895 8.36671 13.9769 8.92715 13.9769 9.50769C13.9769 10.0882 14.1895 10.6487 14.5746 11.0831ZM9.21502 6.33311C8.58871 6.33311 7.97647 6.51883 7.45571 6.86679C6.93496 7.21475 6.52908 7.70931 6.2894 8.28794C6.04972 8.86658 5.98701 9.50329 6.1092 10.1176C6.23139 10.7318 6.53298 11.2961 6.97585 11.7389C7.41871 12.1818 7.98296 12.4834 8.59723 12.6056C9.21151 12.7278 9.84822 12.6651 10.4268 12.4254C11.0055 12.1857 11.5 11.7798 11.848 11.2591C12.196 10.7383 12.3817 10.1261 12.3817 9.49977C12.3817 8.65992 12.0481 7.85447 11.4542 7.2606C10.8603 6.66674 10.0549 6.33311 9.21502 6.33311ZM9.21502 11.0831C8.90187 11.0831 8.59574 10.9902 8.33537 10.8163C8.07499 10.6423 7.87205 10.395 7.75221 10.1057C7.63237 9.81637 7.60102 9.49802 7.66211 9.19088C7.7232 8.88375 7.874 8.60162 8.09543 8.38019C8.31687 8.15876 8.59899 8.00796 8.90613 7.94686C9.21326 7.88577 9.53162 7.91713 9.82093 8.03697C10.1103 8.1568 10.3575 8.35974 10.5315 8.62012C10.7055 8.8805 10.7984 9.18662 10.7984 9.49977C10.7984 9.9197 10.6315 10.3224 10.3346 10.6194C10.0377 10.9163 9.63495 11.0831 9.21502 11.0831Z"
    fill="white" />
</svg>
  