<svg width="30" height="30" viewBox="0 0 30 30" fill="rgb(234, 179, 8)" xmlns="http://www.w3.org/2000/svg">
  <path fill-rule="evenodd" clip-rule="evenodd"
    d="M5.50352 14.5276C6.89852 15.0064 8.00977 16.1739 8.47477 17.6539L8.52477 17.8039C9.05727 19.3739 8.84102 21.0639 7.94852 22.3314C7.78602 22.5614 7.82227 22.8364 7.99352 22.9664L10.5835 24.9339C10.6748 25.0026 10.7635 25.0026 10.8185 24.9964C10.881 24.9864 10.9723 24.9526 11.046 24.8476L11.3348 24.4376C12.196 23.2164 13.5835 22.4626 15.0485 22.4201C16.6935 22.3864 18.171 23.1401 19.091 24.4689L19.2385 24.6826C19.3123 24.7876 19.4023 24.8226 19.466 24.8326C19.521 24.8439 19.611 24.8401 19.701 24.7701L22.2773 22.8264C22.4573 22.6914 22.4973 22.4026 22.3635 22.2089L22.0385 21.7401C21.201 20.5301 20.9523 18.9601 21.3735 17.5414C21.831 15.9964 22.9948 14.7739 24.4885 14.2739L24.7398 14.1889C24.941 14.1226 25.0498 13.8726 24.9785 13.6426L23.9948 10.4914C23.9485 10.3439 23.8535 10.2776 23.801 10.2501C23.726 10.2114 23.6448 10.2051 23.5673 10.2314L23.1423 10.3726C21.6885 10.8564 20.0848 10.5939 18.8535 9.66762L18.7185 9.56637C17.5485 8.68637 16.8523 7.26762 16.8573 5.77262L16.8598 5.42262C16.8598 5.25637 16.781 5.15262 16.7335 5.10512C16.6885 5.05887 16.6123 5.00387 16.5048 5.00387L13.321 5.00012C13.126 5.00012 12.9673 5.18637 12.966 5.41637L12.9648 5.71887C12.9585 7.23762 12.2473 8.68262 11.0623 9.58637L10.901 9.70887C9.59727 10.7001 7.89727 10.9801 6.35727 10.4551C6.29852 10.4351 6.24352 10.4389 6.19102 10.4664C6.15102 10.4864 6.07852 10.5376 6.04352 10.6514L5.02227 13.8964C4.94852 14.1326 5.06977 14.3789 5.29852 14.4576L5.50352 14.5276ZM10.7673 27.5001C10.1598 27.5001 9.56977 27.3026 9.07227 26.9239L6.48227 24.9576C5.24477 24.0201 4.97102 22.2164 5.87102 20.9376C6.33852 20.2751 6.43477 19.4239 6.15977 18.6164L6.09102 18.4064C5.86227 17.6789 5.33977 17.1139 4.69352 16.8926H4.69227L4.48852 16.8214C2.96602 16.3001 2.15352 14.6864 2.63727 13.1464L3.65727 9.90262C3.88852 9.16887 4.38727 8.57637 5.06227 8.23512C5.72227 7.90262 6.46852 7.85137 7.16602 8.09012C7.91477 8.34512 8.74602 8.20637 9.38727 7.71887L9.54852 7.59637C10.1185 7.16137 10.4623 6.45512 10.4648 5.70887L10.466 5.40762C10.4723 3.80262 11.7535 2.50012 13.3198 2.50012H13.3248L16.5085 2.50387C17.261 2.50512 17.971 2.80262 18.506 3.34137C19.0598 3.89762 19.3623 4.64137 19.3598 5.43512L19.3573 5.78387C19.3548 6.49137 19.6785 7.16012 20.2248 7.57012L20.3585 7.67137C20.9323 8.10262 21.6798 8.22637 22.351 8.00137L22.7748 7.86012C23.496 7.62012 24.2635 7.67887 24.9398 8.02512C25.6335 8.38012 26.146 8.99137 26.381 9.74762L27.3648 12.8989C27.8398 14.4214 27.0173 16.0639 25.5335 16.5601L25.2823 16.6439C24.5623 16.8864 23.996 17.4864 23.7698 18.2514C23.5623 18.9526 23.6823 19.7239 24.0935 20.3164L24.4185 20.7851C25.311 22.0751 25.026 23.8851 23.7835 24.8214L21.2073 26.7664C20.5885 27.2339 19.8298 27.4226 19.0685 27.3014C18.301 27.1776 17.631 26.7526 17.1823 26.1051L17.0348 25.8901C16.5973 25.2601 15.8973 24.8776 15.1635 24.9189C14.4285 24.9389 13.7935 25.2876 13.3785 25.8776L13.0898 26.2876C12.6373 26.9289 11.966 27.3476 11.2023 27.4676C11.056 27.4901 10.911 27.5001 10.7673 27.5001ZM15 13.125C13.9663 13.125 13.125 13.9662 13.125 15C13.125 16.0337 13.9663 16.875 15 16.875C16.0338 16.875 16.875 16.0337 16.875 15C16.875 13.9662 16.0338 13.125 15 13.125ZM15 19.375C12.5875 19.375 10.625 17.4125 10.625 15C10.625 12.5875 12.5875 10.625 15 10.625C17.4125 10.625 19.375 12.5875 19.375 15C19.375 17.4125 17.4125 19.375 15 19.375Z"
    fill="rgb(234, 179, 8)" />
</svg>
