<svg width="30" height="30" viewBox="0 0 30 30" fill="none" xmlns="http://www.w3.org/2000/svg">
  <path fill-rule="evenodd" clip-rule="evenodd"
    d="M27.5 23.75C27.5 24.44 26.9412 25 26.25 25C25.5588 25 25 24.44 25 23.75C25 21.6825 23.3175 20 21.25 20C20.3962 20 19.585 20.2925 18.93 20.8113C19.61 22.0562 20 23.4837 20 25C20 25.69 19.4412 26.25 18.75 26.25C18.0588 26.25 17.5 25.69 17.5 25C17.5 21.5537 14.6962 18.75 11.25 18.75C7.80375 18.75 5 21.5537 5 25C5 25.69 4.44125 26.25 3.75 26.25C3.05875 26.25 2.5 25.69 2.5 25C2.5 20.175 6.42625 16.25 11.25 16.25C13.6588 16.25 15.8412 17.2288 17.425 18.8075C18.5112 17.9675 19.8487 17.5 21.25 17.5C24.6963 17.5 27.5 20.3037 27.5 23.75ZM21.25 11.25C21.94 11.25 22.5 11.8112 22.5 12.5C22.5 13.1888 21.94 13.75 21.25 13.75C20.56 13.75 20 13.1888 20 12.5C20 11.8112 20.56 11.25 21.25 11.25ZM21.25 16.25C23.3175 16.25 25 14.5675 25 12.5C25 10.4325 23.3175 8.75 21.25 8.75C19.1825 8.75 17.5 10.4325 17.5 12.5C17.5 14.5675 19.1825 16.25 21.25 16.25ZM11.25 6.25C12.6287 6.25 13.75 7.37125 13.75 8.75C13.75 10.1287 12.6287 11.25 11.25 11.25C9.87125 11.25 8.75 10.1287 8.75 8.75C8.75 7.37125 9.87125 6.25 11.25 6.25ZM11.25 13.75C14.0075 13.75 16.25 11.5075 16.25 8.75C16.25 5.9925 14.0075 3.75 11.25 3.75C8.4925 3.75 6.25 5.9925 6.25 8.75C6.25 11.5075 8.4925 13.75 11.25 13.75Z"
    fill="white" fill-opacity="0.5" />
</svg>
  